name rise42.5664peak47.7979fall81.9185.mot
datacolumns 19
datarows 20
range 18.26659500000000 18.29825800000000
endheader
time	ground_force1_vx	ground_force1_vy	ground_force1_vz	ground_force1_px	ground_force1_py	ground_force1_pz	ground_force2_vx	ground_force2_vy	ground_force2_vz	ground_force2_px	ground_force2_py	ground_force2_pz	ground_torque1_x	ground_torque1_y	ground_torque1_z	ground_torque2_x	ground_torque2_y	ground_torque2_z	
18.26659500000000	-8.59446300000000	41.57188200000000	-9.52749900000000	0.29880700000000	0.00000000000000	0.08783400000000	-49.01132300000000	797.51058799999998	-52.06728100000000	0.11385400000000	0.00000000000000	-0.08078300000000	0.00000000000000	-5.76802000000000	0.00000000000000	0.00000000000000	-18.58171400000000	0.00000000000000	
18.26826100000000	-9.43385600000000	48.73938400000000	-10.72274800000000	0.30396800000000	0.00000000000000	0.08860700000000	-49.75943300000000	794.44822499999998	-51.57765000000000	0.11298400000000	0.00000000000000	-0.08066100000000	0.00000000000000	-6.57647500000000	0.00000000000000	0.00000000000000	-18.52739800000000	0.00000000000000	
18.26996100000000	-10.11282300000000	56.00465800000000	-11.81196800000000	0.30862900000000	0.00000000000000	0.08932400000000	-50.51294200000000	791.22154599999999	-51.06199500000000	0.11211400000000	0.00000000000000	-0.08053600000000	0.00000000000000	-7.33622900000000	0.00000000000000	0.00000000000000	-18.47183500000000	0.00000000000000	
18.27159300000000	-10.60796400000000	63.27611500000000	-12.76991200000000	0.31286600000000	0.00000000000000	0.08999400000000	-51.27066800000000	787.82780700000001	-50.52052000000000	0.11124400000000	0.00000000000000	-0.08040800000000	0.00000000000000	-8.03032600000000	0.00000000000000	0.00000000000000	-18.41493400000000	0.00000000000000	
18.27326100000000	-10.90534100000000	70.48497500000001	-13.57974400000000	0.31674100000000	0.00000000000000	0.09062300000000	-52.03134200000000	784.26431600000001	-49.95347200000000	0.11037300000000	0.00000000000000	-0.08027700000000	0.00000000000000	-8.64676800000000	0.00000000000000	0.00000000000000	-18.35659600000000	0.00000000000000	
18.27494100000000	-11.00034800000000	77.58740500000000	-14.23317100000000	0.32030700000000	0.00000000000000	0.09121400000000	-52.79360800000000	780.52843800000005	-49.36114100000000	0.10950300000000	0.00000000000000	-0.08014300000000	0.00000000000000	-9.17873400000000	0.00000000000000	0.00000000000000	-18.29670700000000	0.00000000000000	
18.27659500000000	-10.89683600000000	84.56424800000001	-14.72984500000000	0.32360300000000	0.00000000000000	0.09177400000000	-53.55602700000000	776.61761300000001	-48.74386100000000	0.10863300000000	0.00000000000000	-0.08000600000000	0.00000000000000	-9.62433000000000	0.00000000000000	0.00000000000000	-18.23514500000000	0.00000000000000	
18.27826300000000	-10.60569700000000	91.41875600000000	-15.07622200000000	0.32666500000000	0.00000000000000	0.09230400000000	-54.31707700000000	772.52935700000000	-48.10201100000000	0.10776400000000	0.00000000000000	-0.07986500000000	0.00000000000000	-9.98599100000000	0.00000000000000	0.00000000000000	-18.17177500000000	0.00000000000000	
18.27994100000000	-10.14312100000000	98.17287100000000	-15.28405600000000	0.32952200000000	0.00000000000000	0.09280800000000	-55.07515600000000	768.26128100000005	-47.43601500000000	0.10689600000000	0.00000000000000	-0.07972100000000	0.00000000000000	-10.26961400000000	0.00000000000000	0.00000000000000	-18.10645000000000	0.00000000000000	
18.28159900000000	-9.52871100000000	104.86260900000001	-15.36872800000000	0.33219700000000	0.00000000000000	0.09328800000000	-55.82858800000000	763.81109800000002	-46.74634100000000	0.10603000000000	0.00000000000000	-0.07957500000000	0.00000000000000	-10.48356800000000	0.00000000000000	0.00000000000000	-18.03901500000000	0.00000000000000	
18.28326300000000	-8.78365600000000	111.53309100000000	-15.34756400000000	0.33471100000000	0.00000000000000	0.09374600000000	-56.57562600000000	759.17663800000003	-46.03350300000000	0.10516500000000	0.00000000000000	-0.07942500000000	0.00000000000000	-10.63766500000000	0.00000000000000	0.00000000000000	-17.96930400000000	0.00000000000000	
18.28493100000000	-7.92909000000000	118.23367300000000	-15.23828900000000	0.33708100000000	0.00000000000000	0.09418400000000	-57.31445100000000	754.35585900000001	-45.29806100000000	0.10430400000000	0.00000000000000	-0.07927300000000	0.00000000000000	-10.74219900000000	0.00000000000000	0.00000000000000	-17.89714200000000	0.00000000000000	
18.28659700000000	-6.98472700000000	125.01356699999999	-15.05771800000000	0.33932200000000	0.00000000000000	0.09460400000000	-58.04318400000000	749.34686599999998	-44.54061900000000	0.10344500000000	0.00000000000000	-0.07911700000000	0.00000000000000	-10.80710400000000	0.00000000000000	0.00000000000000	-17.82234500000000	0.00000000000000	
18.28826500000000	-5.96785600000000	131.91819200000000	-14.82073600000000	0.34144600000000	0.00000000000000	0.09500600000000	-58.75988600000000	744.14792000000000	-43.76182700000000	0.10258900000000	0.00000000000000	-0.07895900000000	0.00000000000000	-10.84129200000000	0.00000000000000	0.00000000000000	-17.74472200000000	0.00000000000000	
18.28992900000000	-4.89268300000000	138.98642400000000	-14.53961000000000	0.34346400000000	0.00000000000000	0.09539300000000	-59.46256200000000	738.75745400000005	-42.96237900000000	0.10173700000000	0.00000000000000	-0.07879800000000	0.00000000000000	-10.85217900000000	0.00000000000000	0.00000000000000	-17.66407400000000	0.00000000000000	
18.29159300000000	-3.77003300000000	146.24878500000000	-14.22361800000000	0.34538400000000	0.00000000000000	0.09576400000000	-60.14917200000000	733.17409299999997	-42.14301300000000	0.10089000000000	0.00000000000000	-0.07863300000000	0.00000000000000	-10.84541300000000	0.00000000000000	0.00000000000000	-17.58019500000000	0.00000000000000	
18.29325800000000	-2.60735200000000	153.72654800000001	-13.87896500000000	0.34721500000000	0.00000000000000	0.09612100000000	-60.81763100000000	727.39666399999999	-41.30451100000000	0.10004800000000	0.00000000000000	-0.07846600000000	0.00000000000000	-10.82477900000000	0.00000000000000	0.00000000000000	-17.49287400000000	0.00000000000000	
18.29493300000000	-1.40896800000000	161.43165400000001	-13.50894900000000	0.34896300000000	0.00000000000000	0.09646500000000	-61.46581700000000	721.42421700000000	-40.44769700000000	0.09921200000000	0.00000000000000	-0.07829700000000	0.00000000000000	-10.79226800000000	0.00000000000000	0.00000000000000	-17.40189400000000	0.00000000000000	
18.29659600000000	-0.17653600000000	169.36729600000001	-13.11431500000000	0.35063500000000	0.00000000000000	0.09679700000000	-62.09157900000000	715.25603400000000	-39.57343600000000	0.09838200000000	0.00000000000000	-0.07812400000000	0.00000000000000	-10.74826400000000	0.00000000000000	0.00000000000000	-17.30703400000000	0.00000000000000	
18.29825800000000	1.09039800000000	177.52901299999999	-12.69373100000000	0.35223400000000	0.00000000000000	0.09711600000000	-62.69273900000000	708.89164900000003	-38.68263200000000	0.09755800000000	0.00000000000000	-0.07794800000000	0.00000000000000	-10.69182300000000	0.00000000000000	0.00000000000000	-17.20806900000000	0.00000000000000	
